# xmcd
#
# Track frame offsets:
#	150
#	18374
#	40354
#	55303
#	73355
#	90105
#	108136
#	122971
#	138090
#	151339
#	165342
#	184433
#	203127
#	217915
#
# Disc length: 3134 seconds
#
# Revision: 13
# Processed by: cddbd v1.5.2PL0 Copyright (c) Steve Scherf et al.
# Submitted via: EZCDAudioConverter 8.2.2.1
#
DISCID=bb0c3c0e
DTITLE=LEANDRO and LEONARDO - SONHO POR SONHO [CD 398424197-2) CHANTECLER
DYEAR=1997
DGENRE=SERTANEJO
TTITLE0=SONHO POR SONHO (BY GILMAR SINISTRO)
TTITLE1=ONDE FOI QUE EU ERREI (BY GILMAR SINISTRO)
TTITLE2=PENSE EM MIM (BY GILMAR SINISTRO)
TTITLE3=HORIZONTE AZUL (BY GILMAR SINISTRO)
TTITLE4=DIZ PRA MIM (BY GILMAR SINISTRO)
TTITLE5=RUMO À GOIÂNIA (BY GILMAR SINISTRO)
TTITLE6=NÃO OLHE ASSIM (BY GILMAR SINISTRO)
TTITLE7=ENTRE TAPAS E BEIJOS (BY GILMAR SINISTRO)
TTITLE8=REI DO GADO (TIÃO CARREIRO and PARDINHO) (PART. ESP. LEANDRO and LEONARDO)
TTITLE8=(BY GILMAR SINISTRO)
TTITLE9=NÃO APRENDI DIZER ADEUS (BY GILMAR SINISTRO)
TTITLE10=EU JURO (I SWEAR) (BY GILMAR SINISTRO)
TTITLE11=DESCULPE, MAS EU VOU CHORAR (BY GILMAR SINISTRO)
TTITLE12=VEM FAZER AMOR COMIGO (BY GILMAR SINISTRO)
TTITLE13=ÍNDIA (INSERÇÃO DA GRAVAÇÃO DE CASCATINHA and INHANA) (BY GILMAR SINIST
TTITLE13=RO)
EXTD=
EXTT0=
EXTT1=
EXTT2=
EXTT3=
EXTT4=
EXTT5=
EXTT6=
EXTT7=
EXTT8=
EXTT9=
EXTT10=
EXTT11=
EXTT12=
EXTT13=
PLAYORDER=
